<svg width="20" height="20" viewBox="0 0 20 20" fill="none" xmlns="http://www.w3.org/2000/svg">
<path fill-rule="evenodd" clip-rule="evenodd" d="M12.1871 2.6626C11.7591 2.6626 11.4121 3.00958 11.4121 3.4376V6.4126H7.81211C7.38409 6.4126 7.03711 6.75958 7.03711 7.1876V10.1626H3.43711C3.00909 10.1626 2.66211 10.5096 2.66211 10.9376V15.7876H2.18711C1.75909 15.7876 1.41211 16.1346 1.41211 16.5626C1.41211 16.9906 1.75909 17.3376 2.18711 17.3376L3.43711 17.3376L17.8121 17.3376C18.2401 17.3376 18.5871 16.9906 18.5871 16.5626C18.5871 16.1346 18.2401 15.7876 17.8121 15.7876H17.3371V3.4376C17.3371 3.00958 16.9901 2.6626 16.5621 2.6626H12.1871ZM11.4121 15.7876V7.9626H8.58711V15.7876H11.4121ZM4.21211 11.7126H7.03711V15.7876H4.21211V11.7126Z" fill="white"/>
</svg>
