<svg width="20" height="20" viewBox="0 0 20 20" fill="none" xmlns="http://www.w3.org/2000/svg">
<g opacity="0.8">
<path fill-rule="evenodd" clip-rule="evenodd" d="M2.66211 10.9376C2.66211 10.5096 3.00909 10.1626 3.43711 10.1626H7.81211C8.24013 10.1626 8.58711 10.5096 8.58711 10.9376C8.58711 11.3656 8.24013 11.7126 7.81211 11.7126H4.21211V16.5626C4.21211 16.9906 3.86513 17.3376 3.43711 17.3376C3.00909 17.3376 2.66211 16.9906 2.66211 16.5626V10.9376Z" fill="white"/>
<path fill-rule="evenodd" clip-rule="evenodd" d="M1.41211 16.5626C1.41211 16.1346 1.75909 15.7876 2.18711 15.7876H17.8121C18.2401 15.7876 18.5871 16.1346 18.5871 16.5626C18.5871 16.9906 18.2401 17.3376 17.8121 17.3376H2.18711C1.75909 17.3376 1.41211 16.9906 1.41211 16.5626Z" fill="white"/>
<path fill-rule="evenodd" clip-rule="evenodd" d="M7.03711 7.1876C7.03711 6.75958 7.38409 6.4126 7.81211 6.4126H12.1871C12.6151 6.4126 12.9621 6.75958 12.9621 7.1876C12.9621 7.61562 12.6151 7.9626 12.1871 7.9626H8.58711V16.5626C8.58711 16.9906 8.24013 17.3376 7.81211 17.3376C7.38409 17.3376 7.03711 16.9906 7.03711 16.5626V7.1876Z" fill="white"/>
<path fill-rule="evenodd" clip-rule="evenodd" d="M11.4121 3.4376C11.4121 3.00958 11.7591 2.6626 12.1871 2.6626H16.5621C16.9901 2.6626 17.3371 3.00958 17.3371 3.4376V16.5626C17.3371 16.9906 16.9901 17.3376 16.5621 17.3376H12.1871C11.7591 17.3376 11.4121 16.9906 11.4121 16.5626V3.4376ZM12.9621 4.2126V15.7876H15.7871V4.2126H12.9621Z" fill="white"/>
</g>
</svg>
