<svg width="20" height="20" viewBox="0 0 20 20" fill="none" xmlns="http://www.w3.org/2000/svg">
<g clip-path="url(#clip0_17414_28339)">
<path d="M10 0.625C4.84375 0.625 0.625 4.84375 0.625 10C0.625 15.1562 4.84375 19.375 10 19.375C10.8203 19.375 11.5234 18.6719 11.5234 17.8516C11.5234 17.5 11.4062 17.0312 11.1719 16.7969C10.9375 16.5625 10.8203 16.2109 10.8203 15.7422C10.8203 14.9219 11.5234 14.2188 12.3438 14.2188H14.2188C17.1484 14.2188 19.375 11.875 19.375 9.0625C19.375 4.375 15.1562 0.625 10 0.625ZM4.25781 10C3.4375 10 2.73438 9.29688 2.73438 8.47656C2.73438 7.65625 3.4375 6.95312 4.25781 6.95312C5.07812 6.95312 5.78125 7.65625 5.78125 8.47656C5.78125 9.29688 5.07812 10 4.25781 10ZM7.42188 5.78125C6.48438 5.78125 5.78125 5.07812 5.78125 4.25781C5.78125 3.4375 6.48438 2.73438 7.42188 2.73438C8.35938 2.73438 8.94531 3.4375 8.94531 4.25781C8.94531 5.07812 8.24219 5.78125 7.42188 5.78125ZM12.5781 5.78125C11.7578 5.78125 11.0547 5.07812 11.0547 4.25781C11.0547 3.4375 11.7578 2.73438 12.5781 2.73438C13.3984 2.73438 14.1016 3.4375 14.1016 4.25781C14.1016 5.07812 13.5156 5.78125 12.5781 5.78125ZM15.7422 10C14.9219 10 14.2188 9.29688 14.2188 8.47656C14.2188 7.65625 14.9219 6.95312 15.7422 6.95312C16.5625 6.95312 17.2656 7.65625 17.2656 8.47656C17.2656 9.29688 16.5625 10 15.7422 10Z" fill="white"/>
</g>
<defs>
<clipPath id="clip0_17414_28339">
<rect width="20" height="20" fill="white"/>
</clipPath>
</defs>
</svg>
