<svg width="20" height="20" viewBox="0 0 20 20" fill="none" xmlns="http://www.w3.org/2000/svg">
<path fill-rule="evenodd" clip-rule="evenodd" d="M10.0354 9.57142C9.36568 10.0163 8.57898 10.2524 7.77496 10.25C6.70071 10.2434 5.67255 9.81288 4.91409 9.05208C4.15563 8.29129 3.72825 7.26175 3.72498 6.18748C3.72498 5.38346 3.9636 4.59752 4.41055 3.92917C4.8575 3.26083 5.49268 2.74016 6.23573 2.43305C6.97879 2.12594 7.79628 2.04621 8.58467 2.20398C9.37306 2.36175 10.0969 2.74992 10.6645 3.31932C11.2322 3.88872 11.6181 4.61377 11.7735 5.40264C11.9288 6.19151 11.8466 7.00871 11.5372 7.75081C11.2278 8.49292 10.7051 9.12653 10.0354 9.57142ZM6.00815 5.0069C5.77465 5.35636 5.65002 5.76719 5.65002 6.18748C5.65002 6.75106 5.87392 7.29157 6.27243 7.69008C6.67095 8.0886 7.21138 8.31249 7.77496 8.31249C8.19525 8.31249 8.60616 8.18787 8.95561 7.95437C9.30507 7.72087 9.5774 7.38899 9.73824 7.00069C9.89907 6.6124 9.94115 6.18514 9.85916 5.77293C9.77717 5.36072 9.57476 4.98209 9.27757 4.6849C8.98039 4.38772 8.60175 4.18531 8.18954 4.10332C7.77733 4.02132 7.35012 4.06341 6.96182 4.22424C6.57353 4.38508 6.24165 4.65745 6.00815 5.0069Z" fill="white"/>
<path d="M4.6875 11.4126H10.8625C11.9378 11.4126 12.9692 11.8389 13.7307 12.598C14.4922 13.3572 14.9217 14.3873 14.925 15.4626V17.0125C14.925 17.1389 14.9001 17.2641 14.8518 17.3809C14.8034 17.4977 14.7325 17.6037 14.6431 17.6931C14.5537 17.7825 14.4476 17.8534 14.3308 17.9018C14.214 17.9502 14.0889 17.9751 13.9625 17.9751C13.8361 17.9751 13.7109 17.9502 13.5941 17.9018C13.4774 17.8534 13.3713 17.7825 13.2819 17.6931C13.1926 17.6037 13.1216 17.4977 13.0733 17.3809C13.0249 17.2641 13 17.1389 13 17.0125V15.4626C12.9967 14.8978 12.77 14.3573 12.3695 13.9592C11.969 13.561 11.4272 13.3375 10.8625 13.3375H4.6875C4.12276 13.3375 3.58097 13.561 3.18047 13.9592C2.77996 14.3573 2.55327 14.8978 2.54997 15.4626V17.0125C2.54997 17.1389 2.5251 17.2641 2.47673 17.3809C2.42836 17.4977 2.35744 17.6037 2.26807 17.6931C2.17869 17.7825 2.07257 17.8534 1.9558 17.9018C1.83902 17.9502 1.71392 17.9751 1.58752 17.9751C1.46113 17.9751 1.33595 17.9502 1.21918 17.9018C1.1024 17.8534 0.996283 17.7825 0.906906 17.6931C0.81753 17.6037 0.746612 17.4977 0.698242 17.3809C0.649872 17.2641 0.625 17.1389 0.625 17.0125V15.4626C0.628309 14.3873 1.0578 13.3572 1.81931 12.598C2.58081 11.8389 3.61222 11.4126 4.6875 11.4126Z" fill="white"/>
<path d="M16.525 11.5375C16.2764 11.4729 16.0123 11.5097 15.7908 11.6398C15.5692 11.7699 15.4085 11.9827 15.3438 12.2313C15.2792 12.4799 15.316 12.7441 15.4461 12.9656C15.5762 13.1871 15.7889 13.3479 16.0376 13.4125C16.4936 13.5288 16.8981 13.7932 17.1877 14.1642C17.4773 14.5352 17.6355 14.9919 17.6375 15.4625V17.0125C17.6375 17.2678 17.7389 17.5126 17.9194 17.6931C18.0999 17.8736 18.3448 17.9751 18.6 17.9751C18.8553 17.9751 19.1002 17.8736 19.2807 17.6931C19.4612 17.5126 19.5626 17.2678 19.5626 17.0125V15.4625C19.5634 14.5641 19.2654 13.6908 18.7155 12.9802C18.1656 12.2697 17.395 11.7622 16.525 11.5375Z" fill="white"/>
<path d="M13.0479 2.24163C13.1738 2.22361 13.3019 2.23071 13.4251 2.26253V2.28752C14.2951 2.51421 15.0654 3.02314 15.6152 3.73455C16.165 4.44596 16.4632 5.31969 16.4632 6.21879C16.4632 7.1179 16.165 7.99159 15.6152 8.703C15.0654 9.41441 14.2951 9.92333 13.4251 10.15C13.3464 10.1622 13.2663 10.1622 13.1876 10.15C13.0168 10.1529 12.8483 10.1098 12.7 10.025C12.5368 9.92615 12.4062 9.78156 12.3244 9.60914C12.2425 9.43673 12.2131 9.24408 12.2397 9.0551C12.2663 8.86611 12.3478 8.68905 12.4741 8.54595C12.6003 8.40284 12.7659 8.29998 12.9501 8.25004C13.4051 8.1314 13.8079 7.86515 14.0955 7.49305C14.383 7.12096 14.539 6.664 14.539 6.19377C14.539 5.72353 14.383 5.26658 14.0955 4.89448C13.8079 4.52238 13.4051 4.25618 12.9501 4.13753C12.7043 4.06989 12.4942 3.90983 12.3637 3.69083C12.2333 3.47183 12.1925 3.21087 12.2501 2.96253C12.2807 2.8391 12.3355 2.72297 12.4113 2.62085C12.4871 2.51872 12.5823 2.4326 12.6916 2.36751C12.8008 2.30242 12.922 2.25965 13.0479 2.24163Z" fill="white"/>
</svg>
