<svg width="20" height="20" viewBox="0 0 20 20" fill="none" xmlns="http://www.w3.org/2000/svg">
<path fill-rule="evenodd" clip-rule="evenodd" d="M1.69774 2.34277C1.22016 2.34277 0.833008 2.72993 0.833008 3.20751V13.0189C0.833008 13.4965 1.22016 13.8836 1.69774 13.8836H2.53848C2.41199 14.1996 2.34241 14.5445 2.34241 14.9057C2.34241 16.4253 3.57431 17.6572 5.09394 17.6572C6.61358 17.6572 7.84548 16.4253 7.84548 14.9057C7.84548 14.5445 7.7759 14.1996 7.64941 13.8836H12.3499C12.2234 14.1996 12.1538 14.5445 12.1538 14.9057C12.1538 16.4253 13.3857 17.6572 14.9054 17.6572C16.425 17.6572 17.6569 16.4253 17.6569 14.9057C17.6569 14.5445 17.5873 14.1996 17.4608 13.8837H18.3016C18.7792 13.8837 19.1663 13.4965 19.1663 13.0189V9.24531C19.1663 9.01597 19.0752 8.79602 18.9131 8.63385L16.6489 6.36968C16.4867 6.20751 16.2668 6.11641 16.0374 6.11641H13.8833V3.20751C13.8833 2.72993 13.4961 2.34277 13.0186 2.34277H1.69774ZM14.8965 13.8837H14.9142C15.4746 13.8884 15.9274 14.3442 15.9274 14.9057C15.9274 15.4702 15.4698 15.9277 14.9054 15.9277C14.3409 15.9277 13.8833 15.4702 13.8833 14.9057C13.8833 14.3442 14.3361 13.8884 14.8965 13.8837ZM14.9199 12.1542H17.4369V9.60349L15.6793 7.84588H13.8833V12.1542H14.8908C14.8957 12.1542 14.9005 12.1541 14.9054 12.1541C14.9102 12.1541 14.9151 12.1542 14.9199 12.1542ZM5.09394 12.1541L5.09998 12.1541H12.1538L12.1538 6.98114L12.1538 6.97761V4.07224H2.56248V12.1541H5.08791L5.09394 12.1541ZM4.07188 14.9057C4.07188 14.3425 4.5274 13.8857 5.0901 13.8836H5.09779C5.66049 13.8857 6.11601 14.3425 6.11601 14.9057C6.11601 15.4702 5.65842 15.9277 5.09394 15.9277C4.52947 15.9277 4.07188 15.4702 4.07188 14.9057Z" fill="white"/>
<path d="M1.69774 2.34277C1.22016 2.34277 0.833008 2.72993 0.833008 3.20751V13.0189C0.833008 13.4965 1.22016 13.8836 1.69774 13.8836H13.0186C13.4961 13.8836 13.8833 13.4965 13.8833 13.0189V3.20751C13.8833 2.72993 13.4961 2.34277 13.0186 2.34277H1.69774Z" fill="white"/>
</svg>
