<svg width="20" height="20" viewBox="0 0 20 20" fill="none" xmlns="http://www.w3.org/2000/svg">
<g opacity="0.8">
<path fill-rule="evenodd" clip-rule="evenodd" d="M0.833008 3.03682C0.833008 2.65216 1.14348 2.34033 1.52646 2.34033H13.0808C13.4638 2.34033 13.7743 2.65216 13.7743 3.03682V13.0945C13.7743 13.4791 13.4638 13.791 13.0808 13.791H1.52646C1.14348 13.791 0.833008 13.4791 0.833008 13.0945V3.03682ZM2.21991 3.73331V12.398H12.3874V3.73331H2.21991Z" fill="white"/>
<path fill-rule="evenodd" clip-rule="evenodd" d="M12.3874 6.90518C12.3874 6.52052 12.6979 6.20869 13.0808 6.20869H16.162C16.3459 6.20869 16.5223 6.28207 16.6524 6.41269L18.9632 8.73369C19.0933 8.8643 19.1663 9.04146 19.1663 9.22618V13.0945C19.1663 13.4792 18.8559 13.791 18.4729 13.791L13.0808 13.791C12.6979 13.791 12.3874 13.4792 12.3874 13.0945V6.90518ZM13.7743 7.60167V12.398H17.7794V9.51467L15.8748 7.60167H13.7743Z" fill="white"/>
<path fill-rule="evenodd" clip-rule="evenodd" d="M4.99273 13.791C4.31216 13.791 3.76045 14.3451 3.76045 15.0286C3.76045 15.7122 4.31216 16.2663 4.99273 16.2663C5.6733 16.2663 6.22501 15.7122 6.22501 15.0286C6.22501 14.3451 5.6733 13.791 4.99273 13.791ZM2.37355 15.0286C2.37355 13.5758 3.5462 12.398 4.99273 12.398C6.43927 12.398 7.61191 13.5758 7.61191 15.0286C7.61191 16.4815 6.43927 17.6593 4.99273 17.6593C3.5462 17.6593 2.37355 16.4815 2.37355 15.0286Z" fill="white"/>
<path fill-rule="evenodd" clip-rule="evenodd" d="M15.0066 13.791C14.326 13.791 13.7743 14.3451 13.7743 15.0286C13.7743 15.7122 14.326 16.2663 15.0066 16.2663C15.6871 16.2663 16.2388 15.7122 16.2388 15.0286C16.2388 14.3451 15.6871 13.791 15.0066 13.791ZM12.3874 15.0286C12.3874 13.5758 13.56 12.398 15.0066 12.398C16.4531 12.398 17.6258 13.5758 17.6258 15.0286C17.6258 16.4815 16.4531 17.6593 15.0066 17.6593C13.56 17.6593 12.3874 16.4815 12.3874 15.0286Z" fill="white"/>
</g>
</svg>
