<svg width="20" height="20" viewBox="0 0 20 20" fill="none" xmlns="http://www.w3.org/2000/svg">
<path d="M17.8955 6.80121L10.9316 1.53481C10.6779 1.34973 10.372 1.25 10.058 1.25C9.74398 1.25 9.43808 1.34973 9.1844 1.53481L2.08802 6.80949C1.90491 6.94397 1.7562 7.11984 1.65402 7.32275C1.55185 7.52566 1.4991 7.74985 1.5001 7.97703V17.276C1.49672 17.5709 1.58338 17.8598 1.74851 18.1041C1.80011 18.1831 1.8613 18.2554 1.93068 18.3194C2.06414 18.4564 2.22384 18.5652 2.40025 18.6392C2.57666 18.7131 2.76617 18.7508 2.95746 18.75H6.85758C7.02783 18.7512 7.19656 18.7179 7.35357 18.6521C7.51057 18.5862 7.65259 18.4892 7.77102 18.3669C7.88946 18.2446 7.98185 18.0996 8.04261 17.9405C8.10336 17.7815 8.13122 17.6118 8.12449 17.4416L8.07481 12.995C8.077 12.7483 8.17655 12.5124 8.35179 12.3387C8.52703 12.165 8.76377 12.0676 9.01051 12.0676H10.9316C11.1775 12.0676 11.4134 12.1653 11.5874 12.3392C11.7613 12.5132 11.859 12.749 11.859 12.995V17.4416C11.859 17.7755 11.9916 18.0956 12.2276 18.3316C12.4637 18.5677 12.7838 18.7003 13.1176 18.7003H17.0674C17.454 18.7003 17.8246 18.5467 18.098 18.2734C18.3713 18.0001 18.5248 17.6294 18.5248 17.2429V7.96048C18.5191 7.73123 18.4591 7.50662 18.3497 7.30508C18.2403 7.10355 18.0846 6.93086 17.8955 6.80121Z" fill="white"/>
</svg>
