<svg width="20" height="20" viewBox="0 0 20 20" fill="none" xmlns="http://www.w3.org/2000/svg">
<path fill-rule="evenodd" clip-rule="evenodd" d="M7.41992 0.5625H12.5805C13.4645 0.5625 14.2205 1.17439 14.4189 2.02135L14.42 2.02601L14.4478 2.16949L14.464 2.31507L14.4688 2.45069L14.4687 2.6657H15.8058C17.1647 2.6657 18.3021 3.6336 18.3816 4.89018L18.3861 5.03095V17.0722C18.3861 18.3493 17.2972 19.3628 15.9558 19.4335L15.8058 19.4375H4.19453C2.83563 19.4375 1.69821 18.4696 1.6187 17.213L1.61426 17.0722V5.03095C1.61426 3.75392 2.70315 2.74041 4.0445 2.66964L4.19453 2.6657H5.53172L5.53173 2.45069C5.53173 1.56664 6.14363 0.810632 6.99059 0.612216L6.99525 0.611125L7.13873 0.583345L7.2843 0.567139L7.41992 0.5625ZM7.68109 1.80161L7.58271 1.80697L7.48036 1.82406L7.37941 1.85311C7.12685 1.94195 6.92698 2.13427 6.83145 2.38121L6.79782 2.48867L6.77925 2.5861L6.77111 2.69661L6.77057 3.90943L6.77594 4.00781L6.79302 4.11016L6.82208 4.21111C6.91091 4.46368 7.10324 4.66355 7.35017 4.75908L7.45764 4.79271L7.55506 4.81127L7.66556 4.81941L12.3193 4.81996L12.4177 4.81459L12.52 4.7975L12.621 4.76845C12.8736 4.67962 13.0734 4.48729 13.1689 4.24036L13.2026 4.13289L13.2211 4.03546L13.2293 3.92495L13.2298 2.71216L13.2243 2.61226L13.2083 2.51536L13.1811 2.41817C13.0558 2.05183 12.714 1.80161 12.3227 1.80161H7.68109ZM6.32356 9.73546C6.32356 10.2107 5.93831 10.5959 5.46309 10.5959C4.98786 10.5959 4.60262 10.2107 4.60262 9.73546C4.60262 9.26023 4.98786 8.87498 5.46309 8.87498C5.93831 8.87498 6.32356 9.26023 6.32356 9.73546ZM7.26228 9.73073C7.26228 9.29871 7.6125 8.94848 8.04453 8.94848H14.6154C15.0474 8.94848 15.3976 9.29871 15.3976 9.73073C15.3976 10.1628 15.0474 10.513 14.6154 10.513H8.04453C7.6125 10.513 7.26228 10.1628 7.26228 9.73073ZM8.04456 13.3699C7.61254 13.3699 7.26231 13.7201 7.26231 14.1522C7.26231 14.5842 7.61254 14.9344 8.04456 14.9344H14.6154C15.0474 14.9344 15.3977 14.5842 15.3977 14.1522C15.3977 13.7201 15.0474 13.3699 14.6154 13.3699H8.04456ZM6.32359 14.1569C6.32359 14.6321 5.93834 15.0173 5.46312 15.0173C4.98789 15.0173 4.60265 14.6321 4.60265 14.1569C4.60265 13.6817 4.98789 13.2964 5.46312 13.2964C5.93834 13.2964 6.32359 13.6817 6.32359 14.1569Z" fill="white"/>
</svg>
