<svg width="20" height="20" viewBox="0 0 20 20" fill="none" xmlns="http://www.w3.org/2000/svg">
<g opacity="0.8">
<path d="M14.2751 11.7752C14.2751 13.1559 13.1558 14.2752 11.7751 14.2752C10.3943 14.2752 9.27505 13.1559 9.27505 11.7752C9.27505 10.3945 10.3943 9.27518 11.7751 9.27518C13.1558 9.27518 14.2751 10.3945 14.2751 11.7752Z" fill="white"/>
<path fill-rule="evenodd" clip-rule="evenodd" d="M15.9268 3.16917C16.004 3.31873 16.0502 3.48234 16.0625 3.65017V6.25015H18.425C18.6023 6.24515 18.7788 6.27515 18.9445 6.33842C19.1103 6.40169 19.2619 6.49699 19.3907 6.61888C19.5196 6.74077 19.6231 6.88686 19.6955 7.04879C19.7679 7.21073 19.8077 7.38536 19.8125 7.56267V16.0002C19.8077 16.1775 19.7679 16.3521 19.6955 16.514C19.6231 16.6759 19.5196 16.822 19.3907 16.9439C19.2619 17.0658 19.1103 17.1611 18.9445 17.2244C18.7788 17.2877 18.6023 17.3176 18.425 17.3127H5.12505C4.94836 17.3176 4.77238 17.2876 4.60739 17.2242C4.4424 17.1607 4.29168 17.0652 4.16382 16.9432C4.03596 16.8211 3.93355 16.675 3.86253 16.5131C3.79151 16.3512 3.75323 16.1769 3.75 16.0002V13.5627H1.37505C1.20783 13.5798 1.03882 13.5631 0.87822 13.5134C0.717624 13.4638 0.568733 13.3823 0.440369 13.2738C0.312004 13.1652 0.206809 13.0319 0.131149 12.8818C0.0554897 12.7317 0.0108881 12.5679 0 12.4002V3.65017C0.0124843 3.48351 0.0582998 3.32107 0.134659 3.17241C0.211018 3.02376 0.316372 2.8919 0.444565 2.78469C0.572758 2.67747 0.721153 2.59705 0.880966 2.54818C1.04078 2.4993 1.20881 2.48297 1.37505 2.50015H14.675C14.8422 2.48118 15.0115 2.4962 15.1728 2.54425C15.3341 2.5923 15.484 2.67242 15.6136 2.7798C15.7431 2.88719 15.8497 3.01961 15.9268 3.16917ZM3.91006 6.41021C4.17262 6.14766 4.52875 6.00017 4.90005 6.00017H14.7501V3.81267H1.31256V12.2502H3.50006V7.40016C3.50006 7.02886 3.64751 6.67276 3.91006 6.41021ZM5.06256 16.0002H18.5001V7.56267H5.06256V16.0002Z" fill="white"/>
</g>
</svg>
