<svg width="20" height="20" viewBox="0 0 20 20" fill="none" xmlns="http://www.w3.org/2000/svg">
<path fill-rule="evenodd" clip-rule="evenodd" d="M12.0562 1.35082C12.101 0.992918 11.9044 0.648363 11.5735 0.504738C11.2427 0.361113 10.8567 0.452805 10.6258 0.729896L1.87583 11.2299C1.674 11.4721 1.6305 11.8092 1.76422 12.0947C1.89794 12.3802 2.18475 12.5625 2.50001 12.5625H9.45462L8.69378 18.6493C8.64905 19.0072 8.84562 19.3517 9.17648 19.4954C9.50734 19.639 9.89328 19.5473 10.1242 19.2702L18.8742 8.7702C19.076 8.528 19.1195 8.19092 18.9858 7.90542C18.8521 7.61992 18.5653 7.43755 18.25 7.43755H11.2954L12.0562 1.35082Z" fill="white"/>
</svg>
