<svg width="20" height="20" viewBox="0 0 20 20" fill="none" xmlns="http://www.w3.org/2000/svg">
<g opacity="0.8">
<path d="M17.0812 10.8332C17.7716 10.8332 18.3312 11.3928 18.3312 12.0832V17.0832C18.3312 17.7735 17.7716 18.3332 17.0812 18.3332H12.0812C11.3909 18.3332 10.8312 17.7735 10.8312 17.0832V12.0832C10.8312 11.3928 11.3909 10.8332 12.0812 10.8332H17.0812ZM7.91699 10.8332C8.60735 10.8332 9.16699 11.3928 9.16699 12.0832V17.0832C9.16699 17.7735 8.60735 18.3332 7.91699 18.3332H2.91699C2.22664 18.3332 1.66699 17.7735 1.66699 17.0832V12.0832C1.66699 11.3928 2.22664 10.8332 2.91699 10.8332H7.91699ZM16.9145 12.2498H12.2478V16.9165H16.9145V12.2498ZM7.75033 12.2498H3.08366V16.9165H7.75033V12.2498ZM7.91699 1.6665C8.60735 1.6665 9.16699 2.22615 9.16699 2.9165V7.9165C9.16699 8.60686 8.60735 9.1665 7.91699 9.1665H2.91699C2.22664 9.1665 1.66699 8.60686 1.66699 7.9165V2.9165C1.66699 2.22615 2.22664 1.6665 2.91699 1.6665H7.91699ZM17.0812 1.6665C17.7716 1.6665 18.3312 2.22615 18.3312 2.9165V7.9165C18.3312 8.60686 17.7716 9.1665 17.0812 9.1665H12.0812C11.3909 9.1665 10.8312 8.60686 10.8312 7.9165V2.9165C10.8312 2.22615 11.3909 1.6665 12.0812 1.6665H17.0812ZM7.75033 3.08317H3.08366V7.74984H7.75033V3.08317ZM16.9145 3.08317H12.2478V7.74984H16.9145V3.08317Z" fill="white"/>
</g>
</svg>
